<svg id="Layer_1" data-name="Layer 1" xmlns="http://www.w3.org/2000/svg" xmlns:xlink="http://www.w3.org/1999/xlink" viewBox="0 0 790.32 216.02"><defs><style>.cls-1{fill:#414042;}.cls-2{fill:#58595b;}.cls-3{fill:url(#linear-gradient);}.cls-4{fill:url(#linear-gradient-2);}.cls-5{fill:url(#linear-gradient-3);}.cls-6{fill:url(#linear-gradient-4);}</style><linearGradient id="linear-gradient" x1="99.96" y1="500" x2="268" y2="500" gradientUnits="userSpaceOnUse"><stop offset="0" stop-color="#2484c6" stop-opacity="0"/><stop offset="0.37" stop-color="#78a3b2" stop-opacity="0.38"/><stop offset="0.8" stop-color="#d8c89c" stop-opacity="0.82"/><stop offset="1" stop-color="#ffd693"/></linearGradient><linearGradient id="linear-gradient-2" x1="203.51" y1="395.5" x2="139.4" y2="471.91" gradientUnits="userSpaceOnUse"><stop offset="0" stop-color="#f02fc2"/><stop offset="0.17" stop-color="#cd3cc2"/><stop offset="1" stop-color="#1e7cc4"/></linearGradient><linearGradient id="linear-gradient-3" x1="833.77" y1="577.4" x2="768.76" y2="653.05" gradientTransform="translate(997.74 1181.48) rotate(180)" gradientUnits="userSpaceOnUse"><stop offset="0" stop-color="#fff33b"/><stop offset="0.04" stop-color="#fee72e"/><stop offset="0.12" stop-color="#fed51b"/><stop offset="0.2" stop-color="#fdca10"/><stop offset="0.28" stop-color="#fdc70c"/><stop offset="0.73" stop-color="#f3903f"/><stop offset="1" stop-color="#ed683c"/></linearGradient><linearGradient id="linear-gradient-4" x1="112.61" y1="458.79" x2="255.35" y2="541.21" gradientUnits="userSpaceOnUse"><stop offset="0" stop-color="#c7d5e4"/><stop offset="0.03" stop-color="#9fbfdb"/><stop offset="0.06" stop-color="#77aad2"/><stop offset="0.09" stop-color="#5a9acb"/><stop offset="0.11" stop-color="#4890c7"/><stop offset="0.13" stop-color="#428dc6"/><stop offset="0.16" stop-color="#368ac6"/><stop offset="0.22" stop-color="#2985c6"/><stop offset="0.27" stop-color="#2484c6"/><stop offset="1" stop-color="#f0f" stop-opacity="0"/></linearGradient></defs><title>shifthink logo</title><path class="cls-1" d="M325.22,472.09a34.63,34.63,0,0,1,11.27,1.77,22.27,22.27,0,0,1,8.35,4.81v16.46a59.24,59.24,0,0,0-7.19-3.72,21.21,21.21,0,0,0-8.65-1.77,11.2,11.2,0,0,0-5.18,1.16,3.8,3.8,0,0,0-2.25,3.6,2.8,2.8,0,0,0,1.34,2.55,20,20,0,0,0,5.24,1.83l3.77,1q16.21,4.14,16.21,17.42A17.29,17.29,0,0,1,344.54,528a24.13,24.13,0,0,1-9.39,7.31,29.88,29.88,0,0,1-12.49,2.62,40.16,40.16,0,0,1-12.91-2A41.16,41.16,0,0,1,299.51,531V514.62a47.22,47.22,0,0,0,9.93,4.51,32.14,32.14,0,0,0,9.93,1.83,11.81,11.81,0,0,0,5.18-.85,3.13,3.13,0,0,0,1.65-3.05,2.87,2.87,0,0,0-1.95-2.62,54.07,54.07,0,0,0-5.61-2.13l-6.21-1.95q-6.82-2.07-10-6.52a20.07,20.07,0,0,1,.25-22,22.32,22.32,0,0,1,9.32-7.19A33.06,33.06,0,0,1,325.22,472.09Z" transform="translate(-99.96 -391.99)"/><path class="cls-1" d="M397.61,472.09a20.32,20.32,0,0,1,15.53,6.46q6,6.46,6,19.14v38.38h-21L398.09,501q0-4.64-2.56-6.52a9.38,9.38,0,0,0-5.72-1.89,9.2,9.2,0,0,0-5.73,1.76,18.93,18.93,0,0,0-4,4.21v37.53h-21V448.33h21V482a29.45,29.45,0,0,1,7.13-7A17.79,17.79,0,0,1,397.61,472.09Z" transform="translate(-99.96 -391.99)"/><path class="cls-1" d="M463.65,473.92v62.15h-21V491H432.58V473.92Zm-11.82-34.85a12.88,12.88,0,0,1,6.52,1.71,13.71,13.71,0,0,1,4.82,4.57,12,12,0,0,1,0,12.73,13.45,13.45,0,0,1-4.82,4.63,13.17,13.17,0,0,1-15.66-2,12.3,12.3,0,0,1,0-18A12.93,12.93,0,0,1,451.83,439.07Z" transform="translate(-99.96 -391.99)"/><path class="cls-1" d="M521.54,473.92v16.45H507.4v45.7h-21v-45.7h-9.26V473.92h9.26v-3.17a24.34,24.34,0,0,1,3.17-12.49,23.52,23.52,0,0,1,8.65-8.59,24.43,24.43,0,0,1,12.43-3.17,32.54,32.54,0,0,1,8,.86,24.65,24.65,0,0,1,5.79,2.19v17.06a18.76,18.76,0,0,0-9.14-2.07,9.28,9.28,0,0,0-5.36,1.77,6,6,0,0,0-2.56,5.3v2.31Z" transform="translate(-99.96 -391.99)"/><path class="cls-2" d="M561.39,455.64v18.28h16.32v16.45H561.39V507.8a12,12,0,0,0,1.88,7.13,6.16,6.16,0,0,0,5.31,2.62,19,19,0,0,0,9.87-2.68V531.2a16,16,0,0,1-6.16,4.69,23.72,23.72,0,0,1-10.29,2,22,22,0,0,1-10.73-2.68,20.68,20.68,0,0,1-7.86-7.68,23.1,23.1,0,0,1-3-12.06V490.37H530V477.58a28.51,28.51,0,0,0,11.76-6.89q5.77-5.29,8.46-15.05Z" transform="translate(-99.96 -391.99)"/><path class="cls-2" d="M631,472.09a20.32,20.32,0,0,1,15.53,6.46q6,6.46,6,19.14v38.38h-21L631.46,501c0-3.09-.86-5.26-2.56-6.52a9.43,9.43,0,0,0-5.73-1.89,9.2,9.2,0,0,0-5.73,1.76,18.93,18.93,0,0,0-4,4.21v37.53h-21V448.33h21V482a29.63,29.63,0,0,1,7.13-7A17.79,17.79,0,0,1,631,472.09Z" transform="translate(-99.96 -391.99)"/><path class="cls-2" d="M697,473.92v62.15h-21V491H665.94V473.92ZM685.2,439.07a12.87,12.87,0,0,1,6.51,1.71,13.63,13.63,0,0,1,4.82,4.57,12,12,0,0,1,0,12.73,13.37,13.37,0,0,1-4.82,4.63,13.15,13.15,0,0,1-15.65-2,12.3,12.3,0,0,1,0-18A12.92,12.92,0,0,1,685.2,439.07Z" transform="translate(-99.96 -391.99)"/><path class="cls-2" d="M735.16,473.92V482a29.45,29.45,0,0,1,7.13-7,17.79,17.79,0,0,1,10.42-2.93,20.32,20.32,0,0,1,15.53,6.46q6,6.46,6,19.14v38.38h-21L753.19,501q0-4.64-2.56-6.52a9.38,9.38,0,0,0-5.72-1.89,9.2,9.2,0,0,0-5.73,1.76,18.71,18.71,0,0,0-4,4.21v37.53h-21V473.92Z" transform="translate(-99.96 -391.99)"/><path class="cls-2" d="M811.69,448.33V498.9l19.86-25H856.9l-25.11,26.81L858,536.07H831.55l-13.16-21-6.7,7.07v13.89h-21V448.33Z" transform="translate(-99.96 -391.99)"/><path class="cls-2" d="M879.32,516.45a10.69,10.69,0,0,1,7.74,3.17,11,11,0,1,1-15.48,0A10.66,10.66,0,0,1,879.32,516.45Zm8.65-62v52.41h-17.3V454.42Z" transform="translate(-99.96 -391.99)"/><path class="cls-3" d="M266.66,500h0a36.13,36.13,0,0,0-35.11-26.78H173.26l7.15-8.52,1.84-2.2,0,0L204.5,436a26.78,26.78,0,1,0-41-34.43L108.55,467a38,38,0,0,0-4.25,6.21,35.69,35.69,0,0,0-3,26.78h0a36.13,36.13,0,0,0,35.11,26.78h58.29l-7.15,8.52-1.84,2.2s0,0,0,0L163.47,564a26.78,26.78,0,1,0,41,34.43L259.42,533a38,38,0,0,0,4.25-6.21A35.69,35.69,0,0,0,266.66,500Z" transform="translate(-99.96 -391.99)"/><path class="cls-4" d="M204.5,436l-22.22,26.47,0,0-.82,1-1,1.22-7.15,8.52H160.77a26.79,26.79,0,0,1-21-43.47l.93-1.1,22.73-27.09a26.78,26.78,0,1,1,41,34.43Z" transform="translate(-99.96 -391.99)"/><path class="cls-5" d="M163.47,564l22.22-26.47s0,0,0,0l.82-1,1-1.22,7.15-8.52H207.2a26.79,26.79,0,0,1,21,43.47l-.93,1.1L204.5,598.44a26.78,26.78,0,1,1-41-34.43Z" transform="translate(-99.96 -391.99)"/><path class="cls-6" d="M266.66,500h0a36.13,36.13,0,0,0-35.11-26.78H160.77a26.79,26.79,0,0,1-21-43.47L108.55,467a38,38,0,0,0-4.25,6.21,35.69,35.69,0,0,0-3,26.78h0a36.13,36.13,0,0,0,35.11,26.78H207.2a26.79,26.79,0,0,1,21,43.47L259.42,533a38,38,0,0,0,4.25-6.21A35.69,35.69,0,0,0,266.66,500Z" transform="translate(-99.96 -391.99)"/></svg>